<mxfile host="Electron" agent="Mozilla/5.0 (Windows NT 10.0; Win64; x64) AppleWebKit/537.36 (KHTML, like Gecko) draw.io/26.0.9 Chrome/128.0.6613.186 Electron/32.2.5 Safari/537.36" version="26.0.9">
  <diagram name="Страница — 1" id="B61QSFBD9j92VJcZaY03">
    <mxGraphModel dx="2876" dy="2375" grid="1" gridSize="10" guides="1" tooltips="1" connect="1" arrows="1" fold="1" page="1" pageScale="1" pageWidth="827" pageHeight="1169" math="0" shadow="0">
      <root>
        <mxCell id="0" />
        <mxCell id="1" parent="0" />
        <mxCell id="7T62gmuAYcarF65H57XP-43" style="edgeStyle=orthogonalEdgeStyle;rounded=0;orthogonalLoop=1;jettySize=auto;html=1;" parent="1" source="Uf0J_Py4AoEpPPf9A5Is-12" target="Uf0J_Py4AoEpPPf9A5Is-14" edge="1">
          <mxGeometry relative="1" as="geometry" />
        </mxCell>
        <mxCell id="Uf0J_Py4AoEpPPf9A5Is-12" value="Пользователь" style="verticalLabelPosition=bottom;aspect=fixed;html=1;shape=mxgraph.salesforce.web;fontStyle=1;fillColor=#fff2cc;strokeColor=#d6b656;" parent="1" vertex="1">
          <mxGeometry x="-8" y="-660" width="114.68" height="90.6" as="geometry" />
        </mxCell>
        <mxCell id="7T62gmuAYcarF65H57XP-44" style="edgeStyle=orthogonalEdgeStyle;rounded=0;orthogonalLoop=1;jettySize=auto;html=1;entryX=0.5;entryY=0;entryDx=0;entryDy=0;" parent="1" source="Uf0J_Py4AoEpPPf9A5Is-14" target="Uf0J_Py4AoEpPPf9A5Is-16" edge="1">
          <mxGeometry relative="1" as="geometry" />
        </mxCell>
        <mxCell id="Uf0J_Py4AoEpPPf9A5Is-14" value="API Gateway&lt;div&gt;&lt;br&gt;&lt;/div&gt;" style="sketch=0;outlineConnect=0;fontColor=#232F3E;gradientColor=none;fillColor=#E7157B;strokeColor=none;dashed=0;verticalLabelPosition=bottom;verticalAlign=top;align=center;html=1;fontSize=12;fontStyle=1;aspect=fixed;pointerEvents=1;shape=mxgraph.aws4.endpoint;" parent="1" vertex="1">
          <mxGeometry x="-1" y="-480" width="100" height="100" as="geometry" />
        </mxCell>
        <mxCell id="7T62gmuAYcarF65H57XP-60" style="edgeStyle=orthogonalEdgeStyle;rounded=1;orthogonalLoop=1;jettySize=auto;html=1;exitX=0.5;exitY=1;exitDx=0;exitDy=0;entryX=0.5;entryY=0;entryDx=0;entryDy=0;curved=0;" parent="1" source="Uf0J_Py4AoEpPPf9A5Is-16" target="7T62gmuAYcarF65H57XP-54" edge="1">
          <mxGeometry relative="1" as="geometry" />
        </mxCell>
        <mxCell id="7T62gmuAYcarF65H57XP-61" style="edgeStyle=orthogonalEdgeStyle;rounded=1;orthogonalLoop=1;jettySize=auto;html=1;exitX=0.5;exitY=1;exitDx=0;exitDy=0;entryX=0.5;entryY=0;entryDx=0;entryDy=0;curved=0;" parent="1" source="Uf0J_Py4AoEpPPf9A5Is-16" target="7T62gmuAYcarF65H57XP-48" edge="1">
          <mxGeometry relative="1" as="geometry" />
        </mxCell>
        <mxCell id="7T62gmuAYcarF65H57XP-62" style="edgeStyle=orthogonalEdgeStyle;rounded=1;orthogonalLoop=1;jettySize=auto;html=1;exitX=0.5;exitY=1;exitDx=0;exitDy=0;entryX=0.5;entryY=0;entryDx=0;entryDy=0;curved=0;" parent="1" source="Uf0J_Py4AoEpPPf9A5Is-16" target="7T62gmuAYcarF65H57XP-19" edge="1">
          <mxGeometry relative="1" as="geometry" />
        </mxCell>
        <mxCell id="7T62gmuAYcarF65H57XP-66" style="edgeStyle=orthogonalEdgeStyle;rounded=1;orthogonalLoop=1;jettySize=auto;html=1;exitX=0.5;exitY=1;exitDx=0;exitDy=0;entryX=0.5;entryY=0;entryDx=0;entryDy=0;curved=0;" parent="1" source="Uf0J_Py4AoEpPPf9A5Is-16" target="7T62gmuAYcarF65H57XP-26" edge="1">
          <mxGeometry relative="1" as="geometry" />
        </mxCell>
        <mxCell id="Uf0J_Py4AoEpPPf9A5Is-16" value="Сервис авторизации&lt;div&gt;OAuth2&lt;/div&gt;" style="label;whiteSpace=wrap;html=1;align=center;verticalAlign=bottom;spacingLeft=0;spacingBottom=4;imageAlign=center;imageVerticalAlign=top;image=img/clipart/Gear_128x128.png;fillColor=#f5f5f5;fontColor=#333333;strokeColor=#666666;" parent="1" vertex="1">
          <mxGeometry x="-10.659999999999993" y="-320" width="120" height="110" as="geometry" />
        </mxCell>
        <mxCell id="ELpbU5azGIm4Fc8LFr4V-3" style="edgeStyle=orthogonalEdgeStyle;rounded=0;orthogonalLoop=1;jettySize=auto;html=1;exitX=0.5;exitY=1;exitDx=0;exitDy=0;entryX=1;entryY=0.5;entryDx=0;entryDy=0;" parent="1" source="7T62gmuAYcarF65H57XP-26" target="ELpbU5azGIm4Fc8LFr4V-2" edge="1">
          <mxGeometry relative="1" as="geometry" />
        </mxCell>
        <mxCell id="7T62gmuAYcarF65H57XP-26" value="Реестр устройств" style="label;whiteSpace=wrap;html=1;align=center;verticalAlign=bottom;spacingLeft=0;spacingBottom=4;imageAlign=center;imageVerticalAlign=top;image=img/clipart/Gear_128x128.png;fillColor=#f5f5f5;fontColor=#333333;strokeColor=#666666;movable=1;resizable=1;rotatable=1;deletable=1;editable=1;locked=0;connectable=1;" parent="1" vertex="1">
          <mxGeometry x="562" y="-120" width="108" height="90" as="geometry" />
        </mxCell>
        <mxCell id="7T62gmuAYcarF65H57XP-51" value="Взаимодействие с БД" style="swimlane;fontStyle=1;childLayout=stackLayout;horizontal=1;startSize=30;horizontalStack=0;resizeParent=1;resizeParentMax=0;resizeLast=0;collapsible=1;marginBottom=0;whiteSpace=wrap;html=1;fillColor=#dae8fc;strokeColor=#6c8ebf;" parent="1" vertex="1">
          <mxGeometry x="-329.99545454545455" width="196.36363636363635" height="68.52000000000001" as="geometry" />
        </mxCell>
        <mxCell id="7T62gmuAYcarF65H57XP-52" value="CRUD пользователя&lt;div&gt;CRUD ролей&lt;/div&gt;" style="text;strokeColor=none;fillColor=none;align=left;verticalAlign=middle;spacingLeft=4;spacingRight=4;overflow=hidden;points=[[0,0.5],[1,0.5]];portConstraint=eastwest;rotatable=0;whiteSpace=wrap;html=1;" parent="7T62gmuAYcarF65H57XP-51" vertex="1">
          <mxGeometry y="30" width="196.36363636363635" height="38.52" as="geometry" />
        </mxCell>
        <mxCell id="7T62gmuAYcarF65H57XP-15" value="Взаимодействие с БД" style="swimlane;fontStyle=1;childLayout=stackLayout;horizontal=1;startSize=30;horizontalStack=0;resizeParent=1;resizeParentMax=0;resizeLast=0;collapsible=1;marginBottom=0;whiteSpace=wrap;html=1;fillColor=#dae8fc;strokeColor=#6c8ebf;" parent="1" vertex="1">
          <mxGeometry x="240.00454545454545" width="196.36363636363635" height="68.52000000000001" as="geometry" />
        </mxCell>
        <mxCell id="7T62gmuAYcarF65H57XP-16" value="Настройка длины пароля&lt;div&gt;Настройки логирования ????&lt;/div&gt;" style="text;strokeColor=none;fillColor=none;align=left;verticalAlign=middle;spacingLeft=4;spacingRight=4;overflow=hidden;points=[[0,0.5],[1,0.5]];portConstraint=eastwest;rotatable=0;whiteSpace=wrap;html=1;" parent="7T62gmuAYcarF65H57XP-15" vertex="1">
          <mxGeometry y="30" width="196.36363636363635" height="38.52" as="geometry" />
        </mxCell>
        <mxCell id="7T62gmuAYcarF65H57XP-65" style="edgeStyle=orthogonalEdgeStyle;rounded=0;orthogonalLoop=1;jettySize=auto;html=1;exitX=0.5;exitY=1;exitDx=0;exitDy=0;entryX=0.5;entryY=0;entryDx=0;entryDy=0;" parent="1" source="7T62gmuAYcarF65H57XP-48" target="Uf0J_Py4AoEpPPf9A5Is-17" edge="1">
          <mxGeometry relative="1" as="geometry" />
        </mxCell>
        <mxCell id="7T62gmuAYcarF65H57XP-48" value="Синхронизация с мастер-системой" style="label;whiteSpace=wrap;html=1;align=center;verticalAlign=bottom;spacingLeft=0;spacingBottom=4;imageAlign=center;imageVerticalAlign=top;image=img/clipart/Gear_128x128.png;fillColor=#f5f5f5;fontColor=#333333;strokeColor=#666666;" parent="1" vertex="1">
          <mxGeometry x="-7.09" y="-120" width="111.27" height="85.33333333333333" as="geometry" />
        </mxCell>
        <mxCell id="7T62gmuAYcarF65H57XP-57" style="edgeStyle=orthogonalEdgeStyle;rounded=0;orthogonalLoop=1;jettySize=auto;html=1;exitX=0.5;exitY=1;exitDx=0;exitDy=0;entryX=0.5;entryY=0;entryDx=0;entryDy=0;" parent="1" source="7T62gmuAYcarF65H57XP-54" target="7T62gmuAYcarF65H57XP-51" edge="1">
          <mxGeometry relative="1" as="geometry" />
        </mxCell>
        <mxCell id="7T62gmuAYcarF65H57XP-54" value="Управление пользователями" style="label;whiteSpace=wrap;html=1;align=center;verticalAlign=bottom;spacingLeft=0;spacingBottom=4;imageAlign=center;imageVerticalAlign=top;image=img/clipart/Gear_128x128.png;fillColor=#f5f5f5;fontColor=#333333;strokeColor=#666666;" parent="1" vertex="1">
          <mxGeometry x="-289.09" y="-120" width="111.27" height="85.33333333333333" as="geometry" />
        </mxCell>
        <mxCell id="7T62gmuAYcarF65H57XP-59" style="edgeStyle=orthogonalEdgeStyle;rounded=0;orthogonalLoop=1;jettySize=auto;html=1;exitX=0.5;exitY=1;exitDx=0;exitDy=0;entryX=0.5;entryY=0;entryDx=0;entryDy=0;" parent="1" source="7T62gmuAYcarF65H57XP-19" target="7T62gmuAYcarF65H57XP-15" edge="1">
          <mxGeometry relative="1" as="geometry" />
        </mxCell>
        <mxCell id="7T62gmuAYcarF65H57XP-19" value="Конфигурация" style="label;whiteSpace=wrap;html=1;align=center;verticalAlign=bottom;spacingLeft=0;spacingBottom=4;imageAlign=center;imageVerticalAlign=top;image=img/clipart/Gear_128x128.png;fillColor=#f5f5f5;fontColor=#333333;strokeColor=#666666;" parent="1" vertex="1">
          <mxGeometry x="280.91363636363633" y="-120" width="111.27" height="90" as="geometry" />
        </mxCell>
        <mxCell id="Uf0J_Py4AoEpPPf9A5Is-5" value="Целевой сайт парсинга" style="ellipse;shape=cloud;whiteSpace=wrap;html=1;fillColor=#f5f5f5;fontColor=#333333;strokeColor=#666666;fontStyle=1" parent="1" vertex="1">
          <mxGeometry x="-640" y="80" width="190" height="130" as="geometry" />
        </mxCell>
        <mxCell id="ELpbU5azGIm4Fc8LFr4V-5" style="edgeStyle=orthogonalEdgeStyle;rounded=0;orthogonalLoop=1;jettySize=auto;html=1;exitX=0.5;exitY=1;exitDx=0;exitDy=0;entryX=0.5;entryY=0;entryDx=0;entryDy=0;" parent="1" source="Uf0J_Py4AoEpPPf9A5Is-17" target="ELpbU5azGIm4Fc8LFr4V-1" edge="1">
          <mxGeometry relative="1" as="geometry" />
        </mxCell>
        <mxCell id="Uf0J_Py4AoEpPPf9A5Is-17" value="Сервис Парсинга" style="label;whiteSpace=wrap;html=1;align=center;verticalAlign=bottom;spacingLeft=0;spacingBottom=4;imageAlign=center;imageVerticalAlign=top;image=img/clipart/Gear_128x128.png;fillColor=#f5f5f5;fontColor=#333333;strokeColor=#666666;" parent="1" vertex="1">
          <mxGeometry x="-11.46" y="100" width="120" height="90" as="geometry" />
        </mxCell>
        <mxCell id="7T62gmuAYcarF65H57XP-64" style="edgeStyle=orthogonalEdgeStyle;rounded=1;orthogonalLoop=1;jettySize=auto;html=1;exitX=0;exitY=0.5;exitDx=0;exitDy=0;entryX=0.875;entryY=0.5;entryDx=0;entryDy=0;entryPerimeter=0;curved=0;" parent="1" source="Uf0J_Py4AoEpPPf9A5Is-17" target="Uf0J_Py4AoEpPPf9A5Is-5" edge="1">
          <mxGeometry relative="1" as="geometry" />
        </mxCell>
        <mxCell id="7T62gmuAYcarF65H57XP-67" value="&lt;font style=&quot;font-size: 16px;&quot;&gt;&lt;b&gt;База данных устройств&lt;/b&gt;&lt;/font&gt;" style="strokeWidth=2;html=1;shape=mxgraph.flowchart.database;whiteSpace=wrap;fillColor=#dae8fc;strokeColor=#6c8ebf;" parent="1" vertex="1">
          <mxGeometry x="-11.66" y="520" width="122" height="130" as="geometry" />
        </mxCell>
        <mxCell id="7T62gmuAYcarF65H57XP-69" style="edgeStyle=orthogonalEdgeStyle;rounded=1;orthogonalLoop=1;jettySize=auto;html=1;entryX=1;entryY=0.5;entryDx=0;entryDy=0;entryPerimeter=0;curved=0;" parent="1" source="7T62gmuAYcarF65H57XP-15" target="7T62gmuAYcarF65H57XP-67" edge="1">
          <mxGeometry relative="1" as="geometry">
            <Array as="points">
              <mxPoint x="220" y="34" />
              <mxPoint x="220" y="585" />
            </Array>
          </mxGeometry>
        </mxCell>
        <mxCell id="ELpbU5azGIm4Fc8LFr4V-6" style="edgeStyle=orthogonalEdgeStyle;rounded=0;orthogonalLoop=1;jettySize=auto;html=1;" parent="1" source="ELpbU5azGIm4Fc8LFr4V-1" target="7T62gmuAYcarF65H57XP-67" edge="1">
          <mxGeometry relative="1" as="geometry" />
        </mxCell>
        <mxCell id="ELpbU5azGIm4Fc8LFr4V-1" value="Взаимодействие с БД" style="swimlane;fontStyle=1;childLayout=stackLayout;horizontal=1;startSize=30;horizontalStack=0;resizeParent=1;resizeParentMax=0;resizeLast=0;collapsible=1;marginBottom=0;whiteSpace=wrap;html=1;fillColor=#dae8fc;strokeColor=#6c8ebf;" parent="1" vertex="1">
          <mxGeometry x="-48.63545454545455" y="320" width="196.36" height="120" as="geometry" />
        </mxCell>
        <mxCell id="ELpbU5azGIm4Fc8LFr4V-2" value="Настройка длины пароля&lt;div&gt;Запись результатов парсинга&lt;div&gt;Получение результатов парсинга&lt;/div&gt;&lt;div&gt;Получение конфигурации парсинга&lt;/div&gt;&lt;/div&gt;" style="text;strokeColor=none;fillColor=none;align=left;verticalAlign=middle;spacingLeft=4;spacingRight=4;overflow=hidden;points=[[0,0.5],[1,0.5]];portConstraint=eastwest;rotatable=0;whiteSpace=wrap;html=1;" parent="ELpbU5azGIm4Fc8LFr4V-1" vertex="1">
          <mxGeometry y="30" width="196.36" height="90" as="geometry" />
        </mxCell>
        <mxCell id="EBoZplrJ1eYwMo9pc9vr-1" value="Отношения в БД пользователей" style="swimlane;whiteSpace=wrap;html=1;fillColor=#f8cecc;strokeColor=#b85450;" parent="1" vertex="1">
          <mxGeometry x="1050" y="-560" width="790" height="600" as="geometry" />
        </mxCell>
        <mxCell id="EBoZplrJ1eYwMo9pc9vr-34" value="" style="group" parent="EBoZplrJ1eYwMo9pc9vr-1" vertex="1" connectable="0">
          <mxGeometry x="110" y="130" width="574" height="360" as="geometry" />
        </mxCell>
        <mxCell id="EBoZplrJ1eYwMo9pc9vr-2" value="users" style="swimlane;fontStyle=0;childLayout=stackLayout;horizontal=1;startSize=30;horizontalStack=0;resizeParent=1;resizeParentMax=0;resizeLast=0;collapsible=1;marginBottom=0;whiteSpace=wrap;html=1;fillColor=#dae8fc;strokeColor=#6c8ebf;" parent="EBoZplrJ1eYwMo9pc9vr-34" vertex="1">
          <mxGeometry width="140" height="240" as="geometry" />
        </mxCell>
        <mxCell id="EBoZplrJ1eYwMo9pc9vr-3" value="id: PK, uuid" style="text;strokeColor=#d6b656;fillColor=#fff2cc;align=left;verticalAlign=middle;spacingLeft=4;spacingRight=4;overflow=hidden;points=[[0,0.5],[1,0.5]];portConstraint=eastwest;rotatable=0;whiteSpace=wrap;html=1;" parent="EBoZplrJ1eYwMo9pc9vr-2" vertex="1">
          <mxGeometry y="30" width="140" height="30" as="geometry" />
        </mxCell>
        <mxCell id="EBoZplrJ1eYwMo9pc9vr-4" value="username: str, unique" style="text;strokeColor=none;fillColor=none;align=left;verticalAlign=middle;spacingLeft=4;spacingRight=4;overflow=hidden;points=[[0,0.5],[1,0.5]];portConstraint=eastwest;rotatable=0;whiteSpace=wrap;html=1;" parent="EBoZplrJ1eYwMo9pc9vr-2" vertex="1">
          <mxGeometry y="60" width="140" height="30" as="geometry" />
        </mxCell>
        <mxCell id="EBoZplrJ1eYwMo9pc9vr-20" value="name: str" style="text;strokeColor=none;fillColor=none;align=left;verticalAlign=middle;spacingLeft=4;spacingRight=4;overflow=hidden;points=[[0,0.5],[1,0.5]];portConstraint=eastwest;rotatable=0;whiteSpace=wrap;html=1;" parent="EBoZplrJ1eYwMo9pc9vr-2" vertex="1">
          <mxGeometry y="90" width="140" height="30" as="geometry" />
        </mxCell>
        <mxCell id="EBoZplrJ1eYwMo9pc9vr-19" value="surname: str" style="text;strokeColor=none;fillColor=none;align=left;verticalAlign=middle;spacingLeft=4;spacingRight=4;overflow=hidden;points=[[0,0.5],[1,0.5]];portConstraint=eastwest;rotatable=0;whiteSpace=wrap;html=1;" parent="EBoZplrJ1eYwMo9pc9vr-2" vertex="1">
          <mxGeometry y="120" width="140" height="30" as="geometry" />
        </mxCell>
        <mxCell id="EBoZplrJ1eYwMo9pc9vr-5" value="email: str, unique" style="text;strokeColor=none;fillColor=none;align=left;verticalAlign=middle;spacingLeft=4;spacingRight=4;overflow=hidden;points=[[0,0.5],[1,0.5]];portConstraint=eastwest;rotatable=0;whiteSpace=wrap;html=1;" parent="EBoZplrJ1eYwMo9pc9vr-2" vertex="1">
          <mxGeometry y="150" width="140" height="30" as="geometry" />
        </mxCell>
        <mxCell id="EBoZplrJ1eYwMo9pc9vr-8" value="hashed_pass: str" style="text;strokeColor=none;fillColor=none;align=left;verticalAlign=middle;spacingLeft=4;spacingRight=4;overflow=hidden;points=[[0,0.5],[1,0.5]];portConstraint=eastwest;rotatable=0;whiteSpace=wrap;html=1;" parent="EBoZplrJ1eYwMo9pc9vr-2" vertex="1">
          <mxGeometry y="180" width="140" height="30" as="geometry" />
        </mxCell>
        <mxCell id="EBoZplrJ1eYwMo9pc9vr-9" value="active: bool" style="text;strokeColor=none;fillColor=none;align=left;verticalAlign=middle;spacingLeft=4;spacingRight=4;overflow=hidden;points=[[0,0.5],[1,0.5]];portConstraint=eastwest;rotatable=0;whiteSpace=wrap;html=1;" parent="EBoZplrJ1eYwMo9pc9vr-2" vertex="1">
          <mxGeometry y="210" width="140" height="30" as="geometry" />
        </mxCell>
        <mxCell id="EBoZplrJ1eYwMo9pc9vr-10" value="roles" style="swimlane;fontStyle=0;childLayout=stackLayout;horizontal=1;startSize=30;horizontalStack=0;resizeParent=1;resizeParentMax=0;resizeLast=0;collapsible=1;marginBottom=0;whiteSpace=wrap;html=1;fillColor=#dae8fc;strokeColor=#6c8ebf;" parent="EBoZplrJ1eYwMo9pc9vr-34" vertex="1">
          <mxGeometry x="220" width="160" height="90" as="geometry" />
        </mxCell>
        <mxCell id="EBoZplrJ1eYwMo9pc9vr-11" value="id: PK, uuid" style="text;strokeColor=#d6b656;fillColor=#fff2cc;align=left;verticalAlign=middle;spacingLeft=4;spacingRight=4;overflow=hidden;points=[[0,0.5],[1,0.5]];portConstraint=eastwest;rotatable=0;whiteSpace=wrap;html=1;" parent="EBoZplrJ1eYwMo9pc9vr-10" vertex="1">
          <mxGeometry y="30" width="160" height="30" as="geometry" />
        </mxCell>
        <mxCell id="EBoZplrJ1eYwMo9pc9vr-12" value="role_name: str" style="text;strokeColor=none;fillColor=none;align=left;verticalAlign=middle;spacingLeft=4;spacingRight=4;overflow=hidden;points=[[0,0.5],[1,0.5]];portConstraint=eastwest;rotatable=0;whiteSpace=wrap;html=1;" parent="EBoZplrJ1eYwMo9pc9vr-10" vertex="1">
          <mxGeometry y="60" width="160" height="30" as="geometry" />
        </mxCell>
        <mxCell id="EBoZplrJ1eYwMo9pc9vr-16" value="permissions" style="swimlane;fontStyle=0;childLayout=stackLayout;horizontal=1;startSize=30;horizontalStack=0;resizeParent=1;resizeParentMax=0;resizeLast=0;collapsible=1;marginBottom=0;whiteSpace=wrap;html=1;fillColor=#dae8fc;strokeColor=#6c8ebf;" parent="EBoZplrJ1eYwMo9pc9vr-34" vertex="1">
          <mxGeometry x="220" y="120" width="140" height="90" as="geometry" />
        </mxCell>
        <mxCell id="EBoZplrJ1eYwMo9pc9vr-17" value="id: PK, uuid" style="text;strokeColor=none;fillColor=none;align=left;verticalAlign=middle;spacingLeft=4;spacingRight=4;overflow=hidden;points=[[0,0.5],[1,0.5]];portConstraint=eastwest;rotatable=0;whiteSpace=wrap;html=1;" parent="EBoZplrJ1eYwMo9pc9vr-16" vertex="1">
          <mxGeometry y="30" width="140" height="30" as="geometry" />
        </mxCell>
        <mxCell id="EBoZplrJ1eYwMo9pc9vr-18" value="role_name: str" style="text;strokeColor=none;fillColor=none;align=left;verticalAlign=middle;spacingLeft=4;spacingRight=4;overflow=hidden;points=[[0,0.5],[1,0.5]];portConstraint=eastwest;rotatable=0;whiteSpace=wrap;html=1;" parent="EBoZplrJ1eYwMo9pc9vr-16" vertex="1">
          <mxGeometry y="60" width="140" height="30" as="geometry" />
        </mxCell>
        <mxCell id="EBoZplrJ1eYwMo9pc9vr-21" value="role_permissions" style="swimlane;fontStyle=0;childLayout=stackLayout;horizontal=1;startSize=30;horizontalStack=0;resizeParent=1;resizeParentMax=0;resizeLast=0;collapsible=1;marginBottom=0;whiteSpace=wrap;html=1;fillColor=#dae8fc;strokeColor=#6c8ebf;" parent="EBoZplrJ1eYwMo9pc9vr-34" vertex="1">
          <mxGeometry x="434" width="140" height="120" as="geometry" />
        </mxCell>
        <mxCell id="EBoZplrJ1eYwMo9pc9vr-22" value="id: PK, uuid" style="text;strokeColor=none;fillColor=none;align=left;verticalAlign=middle;spacingLeft=4;spacingRight=4;overflow=hidden;points=[[0,0.5],[1,0.5]];portConstraint=eastwest;rotatable=0;whiteSpace=wrap;html=1;" parent="EBoZplrJ1eYwMo9pc9vr-21" vertex="1">
          <mxGeometry y="30" width="140" height="30" as="geometry" />
        </mxCell>
        <mxCell id="EBoZplrJ1eYwMo9pc9vr-23" value="role_id: FK, uuid" style="text;strokeColor=none;fillColor=none;align=left;verticalAlign=middle;spacingLeft=4;spacingRight=4;overflow=hidden;points=[[0,0.5],[1,0.5]];portConstraint=eastwest;rotatable=0;whiteSpace=wrap;html=1;" parent="EBoZplrJ1eYwMo9pc9vr-21" vertex="1">
          <mxGeometry y="60" width="140" height="30" as="geometry" />
        </mxCell>
        <mxCell id="EBoZplrJ1eYwMo9pc9vr-24" value="permission_id: FK, uuid" style="text;strokeColor=none;fillColor=none;align=left;verticalAlign=middle;spacingLeft=4;spacingRight=4;overflow=hidden;points=[[0,0.5],[1,0.5]];portConstraint=eastwest;rotatable=0;whiteSpace=wrap;html=1;" parent="EBoZplrJ1eYwMo9pc9vr-21" vertex="1">
          <mxGeometry y="90" width="140" height="30" as="geometry" />
        </mxCell>
        <mxCell id="EBoZplrJ1eYwMo9pc9vr-25" style="edgeStyle=orthogonalEdgeStyle;rounded=1;orthogonalLoop=1;jettySize=auto;html=1;exitX=0;exitY=0.5;exitDx=0;exitDy=0;entryX=1;entryY=0.5;entryDx=0;entryDy=0;curved=0;" parent="EBoZplrJ1eYwMo9pc9vr-34" source="EBoZplrJ1eYwMo9pc9vr-23" target="EBoZplrJ1eYwMo9pc9vr-11" edge="1">
          <mxGeometry relative="1" as="geometry" />
        </mxCell>
        <mxCell id="EBoZplrJ1eYwMo9pc9vr-26" style="edgeStyle=orthogonalEdgeStyle;rounded=1;orthogonalLoop=1;jettySize=auto;html=1;exitX=0;exitY=0.5;exitDx=0;exitDy=0;entryX=1;entryY=0.5;entryDx=0;entryDy=0;curved=0;" parent="EBoZplrJ1eYwMo9pc9vr-34" source="EBoZplrJ1eYwMo9pc9vr-24" target="EBoZplrJ1eYwMo9pc9vr-17" edge="1">
          <mxGeometry relative="1" as="geometry" />
        </mxCell>
        <mxCell id="EBoZplrJ1eYwMo9pc9vr-27" value="user_roles" style="swimlane;fontStyle=0;childLayout=stackLayout;horizontal=1;startSize=30;horizontalStack=0;resizeParent=1;resizeParentMax=0;resizeLast=0;collapsible=1;marginBottom=0;whiteSpace=wrap;html=1;fillColor=#dae8fc;strokeColor=#6c8ebf;" parent="EBoZplrJ1eYwMo9pc9vr-34" vertex="1">
          <mxGeometry x="220" y="240" width="140" height="120" as="geometry" />
        </mxCell>
        <mxCell id="EBoZplrJ1eYwMo9pc9vr-28" value="id: PK, uuid" style="text;strokeColor=none;fillColor=none;align=left;verticalAlign=middle;spacingLeft=4;spacingRight=4;overflow=hidden;points=[[0,0.5],[1,0.5]];portConstraint=eastwest;rotatable=0;whiteSpace=wrap;html=1;" parent="EBoZplrJ1eYwMo9pc9vr-27" vertex="1">
          <mxGeometry y="30" width="140" height="30" as="geometry" />
        </mxCell>
        <mxCell id="EBoZplrJ1eYwMo9pc9vr-29" value="user_id: FK, uuid" style="text;strokeColor=none;fillColor=none;align=left;verticalAlign=middle;spacingLeft=4;spacingRight=4;overflow=hidden;points=[[0,0.5],[1,0.5]];portConstraint=eastwest;rotatable=0;whiteSpace=wrap;html=1;" parent="EBoZplrJ1eYwMo9pc9vr-27" vertex="1">
          <mxGeometry y="60" width="140" height="30" as="geometry" />
        </mxCell>
        <mxCell id="EBoZplrJ1eYwMo9pc9vr-30" value="role_id: FK, uuid" style="text;strokeColor=none;fillColor=none;align=left;verticalAlign=middle;spacingLeft=4;spacingRight=4;overflow=hidden;points=[[0,0.5],[1,0.5]];portConstraint=eastwest;rotatable=0;whiteSpace=wrap;html=1;" parent="EBoZplrJ1eYwMo9pc9vr-27" vertex="1">
          <mxGeometry y="90" width="140" height="30" as="geometry" />
        </mxCell>
        <mxCell id="EBoZplrJ1eYwMo9pc9vr-31" style="edgeStyle=orthogonalEdgeStyle;rounded=1;orthogonalLoop=1;jettySize=auto;html=1;exitX=0;exitY=0.5;exitDx=0;exitDy=0;entryX=1;entryY=0.5;entryDx=0;entryDy=0;curved=0;" parent="EBoZplrJ1eYwMo9pc9vr-34" source="EBoZplrJ1eYwMo9pc9vr-29" target="EBoZplrJ1eYwMo9pc9vr-3" edge="1">
          <mxGeometry relative="1" as="geometry" />
        </mxCell>
        <mxCell id="EBoZplrJ1eYwMo9pc9vr-33" style="edgeStyle=orthogonalEdgeStyle;rounded=1;orthogonalLoop=1;jettySize=auto;html=1;exitX=1;exitY=0.5;exitDx=0;exitDy=0;entryX=0;entryY=0.5;entryDx=0;entryDy=0;curved=0;" parent="EBoZplrJ1eYwMo9pc9vr-34" source="EBoZplrJ1eYwMo9pc9vr-30" target="EBoZplrJ1eYwMo9pc9vr-11" edge="1">
          <mxGeometry relative="1" as="geometry">
            <Array as="points">
              <mxPoint x="380" y="345" />
              <mxPoint x="380" y="220" />
              <mxPoint x="200" y="220" />
              <mxPoint x="200" y="45" />
            </Array>
          </mxGeometry>
        </mxCell>
        <mxCell id="D0jTwzuEolsmLSjIC2lt-1" value="&lt;span style=&quot;font-size: 16px;&quot;&gt;&lt;b&gt;База данных пользователей&lt;/b&gt;&lt;/span&gt;" style="strokeWidth=2;html=1;shape=mxgraph.flowchart.database;whiteSpace=wrap;fillColor=#dae8fc;strokeColor=#6c8ebf;" vertex="1" parent="1">
          <mxGeometry x="-293.09" y="520" width="122" height="130" as="geometry" />
        </mxCell>
        <mxCell id="D0jTwzuEolsmLSjIC2lt-2" style="edgeStyle=orthogonalEdgeStyle;rounded=0;orthogonalLoop=1;jettySize=auto;html=1;entryX=0.5;entryY=0;entryDx=0;entryDy=0;entryPerimeter=0;" edge="1" parent="1" source="7T62gmuAYcarF65H57XP-51" target="D0jTwzuEolsmLSjIC2lt-1">
          <mxGeometry relative="1" as="geometry" />
        </mxCell>
      </root>
    </mxGraphModel>
  </diagram>
</mxfile>
